<?xml version="1.0" encoding="utf-8"?>
<!-- Generator: Adobe Illustrator 21.1.0, SVG Export Plug-In . SVG Version: 6.00 Build 0)  -->
<svg version="1.1" id="Layer_1" xmlns="http://www.w3.org/2000/svg" xmlns:xlink="http://www.w3.org/1999/xlink" x="0px" y="0px"
	 viewBox="0 0 819.7 245.5" style="enable-background:new 0 0 819.7 245.5;" xml:space="preserve">
<style type="text/css">
	.st0{fill:#EE3F23;}
	.st1{fill:#58595B;}
</style>
<g>
	<path class="st0" d="M86.5,34.3c9.5,0,16,6.5,16,16v105c0,9.5-6.5,16-16,16H16c-9.5,0-16-6.5-16-16v-105c0-9.5,6.5-16,16-16H86.5z
		 M67.2,66.2c0-1.2-1-2.2-2.2-2.2H37.2c-0.8,0-1.8,1-1.8,2.2v73.7c0,1,1,1.8,1.8,1.8H65c1.2,0,2.2-0.8,2.2-1.8V66.2z"/>
	<path class="st0" d="M140.3,171.4V34.3h84.5c11.2,0,18.3,7.1,18.3,17.3V82c0,9.3-6.1,18.3-18.7,21.3c12.6,3,19.7,11.6,19.7,20.7
		v29.9c0,10.8-7.1,17.5-18.3,17.5H140.3z M209.2,63.7c0-1-0.6-2.2-2-2.2h-31.7v28.4h31.7c1.4,0,2-1,2-2.2V63.7z M209.2,117.3
		c0-1-0.6-2.2-2-2.2h-31.7v30.3h31.7c1.4,0,2-1,2-2V117.3z"/>
	<path class="st0" d="M279.9,34.3h89.6v29.5H315v24h47.1v29.2H315v24.8h54.4v29.7h-89.6V34.3z"/>
	<path class="st0" d="M403.5,34.3h35.1v107.4h43.7v29.7h-78.8V34.3z"/>
	<path class="st0" d="M583.7,141.7h51.4c1.4,0,2.2-0.8,2.2-1.8V120c0-1-0.8-1.8-2.2-1.8h-35.3c-9.5,0-16-6.5-16-16V50.3
		c0-9.5,6.5-16,16-16h70.9v29.5H621c-1.2,0-2,1-2,2.2v20.1c0,0.8,0.8,1.8,2,1.8h35.3c9.5,0,16,6.5,16,16v51.4c0,9.5-6.5,16-16,16
		h-72.7V141.7z"/>
	<path class="st0" d="M781.1,171.4L754.3,119L743.1,137v34.3h-35.3V34.3h35.3v57.1l35.5-57.1H818l-39.6,59.5l41.2,77.6H781.1z"/>
</g>
<path class="st0" d="M554.6,171.4h-49.2l7.1-137.1h35.1L554.6,171.4z"/>
<g>
	<path class="st0" d="M547.5,171.4h-35.1V34.3h35.1V171.4z"/>
</g>
<path class="st1" d="M529.3,0.4l-16.8,27.1c-0.3,0.5,0.1,1.2,0.7,1.2H530h16.8c0.6,0,1-0.7,0.7-1.2L530.6,0.4
	C530.3-0.1,529.6-0.1,529.3,0.4z"/>
<g>
	<path class="st1" d="M26.9,188.6v7.8h-8.4V230H9.3v-33.6H1v-7.8H26.9z"/>
	<path class="st1" d="M43.8,188.6c5.6,0,7.4,0.4,9.8,2.2c2.9,2.2,4.5,5.8,4.5,10.4c0,5.3-1.7,8.3-5.8,10.8l7.6,18.1h-9.9l-5.5-16.3
		h-4.5V230h-9.1v-41.4H43.8z M39.9,206.9h4c3.5,0,5.3-2.1,5.3-6c0-2-0.6-3.7-1.8-4.7c-0.8-0.7-1.9-1-3.9-1h-3.6V206.9z"/>
	<path class="st1" d="M83.6,188.6L95.4,230h-9.3l-2-8.5H72.4l-2,8.5H62l12.4-41.4H83.6z M78.2,197.5l-4,16.9h8.2L78.2,197.5z"/>
	<path class="st1" d="M108,188.6V230h-9.1v-41.4H108z"/>
	<path class="st1" d="M125.5,188.6l10.5,25.7v-25.7h7.1V230H135l-12.5-30v30h-7.1v-41.4H125.5z"/>
	<path class="st1" d="M159.7,188.6V230h-9.1v-41.4H159.7z"/>
	<path class="st1" d="M177.3,188.6l10.5,25.7v-25.7h7.1V230h-8.1l-12.5-30v30h-7.1v-41.4H177.3z"/>
	<path class="st1" d="M231.3,207.9V230h-3.8l-1.2-4.7c-2.4,3.7-5.5,5.3-10,5.3c-9.4,0-15.3-7.9-15.3-20.8c0-8.4,2.3-15,6.5-18.6
		c2.5-2.2,5.7-3.2,9.6-3.2c8.6,0,12.9,4.3,14.2,14.1l-8.2,1.4c-0.4-2.9-0.7-4.3-1.4-5.5c-0.9-1.7-2.5-2.7-4.5-2.7
		c-4.5,0-6.7,4.5-6.7,14.1c0,9.6,2.1,13.8,7,13.8c2.3,0,4-1.2,4.9-3.4c0.4-1.1,0.6-2.2,0.7-4.8h-6.1v-7.1H231.3z"/>
	<path class="st1" d="M278.5,215.5c-0.7,9.4-6.2,15.1-14.5,15.1c-9.9,0-15.6-7.8-15.6-21.3c0-13.7,5.6-21.3,15.7-21.3
		c5.2,0,9.1,2,11.5,6c1.6,2.6,2.3,5.3,2.7,10l-8.3,0.6c-0.2-3.6-0.5-5-1.3-6.5c-1.1-1.9-2.5-2.8-4.5-2.8c-4.4,0-6.2,4.3-6.2,14.6
		c0,9.4,1.8,13.2,6.2,13.2c3.3,0,5.2-2.6,5.8-8.3L278.5,215.5z"/>
	<path class="st1" d="M307.7,191.9c3.4,3.7,5,9.2,5,17.4c0,14-5.2,21.3-15,21.3s-15-7.3-15-21.2c0-14.3,5.1-21.5,15.2-21.5
		C301.8,188,305.3,189.4,307.7,191.9z M292.1,209.2c0,10.5,1.4,14,5.5,14c4.1,0,5.5-3.5,5.5-14c0-10.3-1.4-13.9-5.4-13.9
		C293.6,195.3,292.1,198.8,292.1,209.2z"/>
	<path class="st1" d="M330.7,188.6c5.6,0,7.4,0.4,9.8,2.2c2.9,2.2,4.5,5.8,4.5,10.4c0,5.3-1.7,8.3-5.8,10.8l7.6,18.1h-9.9l-5.5-16.3
		h-4.5V230h-9.1v-41.4H330.7z M326.8,206.9h4c3.5,0,5.3-2.1,5.3-6c0-2-0.6-3.7-1.8-4.7c-0.8-0.7-1.9-1-3.9-1h-3.6V206.9z"/>
	<path class="st1" d="M363.4,188.6c6,0,8.3,0.4,10.6,2c3.1,2.1,4.8,6.1,4.8,10.9c0,5-1.7,9-4.7,11c-2.4,1.6-5,2.2-10.3,2.2h-3.2V230
		h-9.1v-41.4H363.4z M360.6,207.6h2.8c4.2,0,5.8-1.7,5.8-6.3c0-2.1-0.6-3.9-1.7-4.9c-0.9-0.9-1.9-1.1-4.2-1.1h-2.8V207.6z"/>
	<path class="st1" d="M387,220.8v9.2h-8.4v-9.2H387z"/>
</g>
</svg>
